<svg width="144" height="144" viewBox="0 0 144 144" fill="none" xmlns="http://www.w3.org/2000/svg">
<rect width="144" height="144" rx="24" fill="url(#paint0_radial_2491_272)"/>
<g filter="url(#filter0_d_2491_272)">
<path d="M55.4736 99.9711L95.2336 80.0911C96.644 79.3816 97.8295 78.2943 98.6578 76.9503C99.4862 75.6063 99.9248 74.0587 99.9248 72.4799C99.9248 70.9012 99.4862 69.3535 98.6578 68.0095C97.8295 66.6656 96.644 65.5782 95.2336 64.8687L55.4736 44.9887C53.9045 44.2077 52.1327 43.9297 50.3998 44.1925C48.6669 44.4553 47.0572 45.2462 45.7902 46.4573C44.5232 47.6684 43.6605 49.2408 43.3198 50.9601C42.9792 52.6794 43.177 54.462 43.8864 56.0647L50.7024 71.3155C50.8571 71.6842 50.9367 72.0801 50.9367 72.4799C50.9367 72.8798 50.8571 73.2756 50.7024 73.6443L43.8864 88.8951C43.177 90.4979 42.9792 92.2804 43.3198 93.9997C43.6605 95.719 44.5232 97.2914 45.7902 98.5025C47.0572 99.7136 48.6669 100.504 50.3998 100.767C52.1327 101.03 53.9045 100.752 55.4736 99.9711ZM49.7936 94.2911C49.3715 93.8858 49.085 93.3599 48.9731 92.7854C48.8613 92.211 48.9296 91.616 49.1688 91.0819L55.9564 75.8311C56.4419 74.7405 56.6928 73.5601 56.6928 72.3663C56.6928 71.1726 56.4419 69.9921 55.9564 68.9015L49.0836 53.7643C48.8528 53.2331 48.7899 52.6441 48.9034 52.0761C49.0168 51.5082 49.3012 50.9885 49.7184 50.5868C50.1356 50.185 50.6656 49.9205 51.2375 49.8285C51.8093 49.7366 52.3955 49.8216 52.9176 50.0723L92.6776 69.9523C93.1428 70.1906 93.5332 70.5527 93.8059 70.9987C94.0785 71.4447 94.2227 71.9572 94.2227 72.4799C94.2227 73.0026 94.0785 73.5152 93.8059 73.9611C93.5332 74.4071 93.1428 74.7692 92.6776 75.0075L52.9176 94.8875C52.3975 95.1445 51.811 95.236 51.2373 95.1497C50.6635 95.0633 50.13 94.8034 49.7084 94.4047L49.7936 94.2911Z" fill="white"/>
</g>
<defs>
<filter id="filter0_d_2491_272" x="25.4395" y="28.3999" width="92.1602" height="92.16" filterUnits="userSpaceOnUse" color-interpolation-filters="sRGB">
<feFlood flood-opacity="0" result="BackgroundImageFix"/>
<feColorMatrix in="SourceAlpha" type="matrix" values="0 0 0 0 0 0 0 0 0 0 0 0 0 0 0 0 0 0 127 0" result="hardAlpha"/>
<feOffset dy="2"/>
<feGaussianBlur stdDeviation="6"/>
<feComposite in2="hardAlpha" operator="out"/>
<feColorMatrix type="matrix" values="0 0 0 0 0.964706 0 0 0 0 0.764706 0 0 0 0 0.0352941 0 0 0 0.6 0"/>
<feBlend mode="normal" in2="BackgroundImageFix" result="effect1_dropShadow_2491_272"/>
<feBlend mode="normal" in="SourceGraphic" in2="effect1_dropShadow_2491_272" result="shape"/>
</filter>
<radialGradient id="paint0_radial_2491_272" cx="0" cy="0" r="1" gradientUnits="userSpaceOnUse" gradientTransform="rotate(-45.0347) scale(139.385 200.455)">
<stop stop-color="#F9C823"/>
<stop offset="1" stop-color="#FCC44B"/>
</radialGradient>
</defs>
</svg>
